<mxfile host="app.diagrams.net" modified="2023-04-17T09:28:59.058Z" agent="Mozilla/5.0 (Windows NT 10.0; Win64; x64) AppleWebKit/537.36 (KHTML, like Gecko) Chrome/112.0.0.0 Safari/537.36" version="21.1.8" etag="d7AVzFt_qI26bMds8kqa" type="github">
  <diagram name="Trang-1" id="WoO5seRZ6OHRu0VSU2pG">
    <mxGraphModel>
      <root>
        <mxCell id="0" />
        <mxCell id="1" parent="0" />
      </root>
    </mxGraphModel>
  </diagram>
</mxfile>
